<svg width="15" height="15" viewBox="0 0 15 15" fill="none" xmlns="http://www.w3.org/2000/svg">
<path d="M13.6861 12.8511H9.08626C8.63748 12.8511 8.27246 13.2208 8.27246 13.6755C8.27246 14.131 8.63748 14.4999 9.08626 14.4999H13.6861C14.1349 14.4999 14.4999 14.131 14.4999 13.6755C14.4999 13.2208 14.1349 12.8511 13.6861 12.8511Z" fill="white"/>
<path d="M12.2147 4.5639L5.13663 13.7172C4.81179 14.1328 4.33308 14.3666 3.82018 14.3753L0.999224 14.4099C0.845353 14.4099 0.717128 14.306 0.682935 14.1588L0.0418078 11.379C-0.0693209 10.8681 0.0418078 10.3399 0.366645 9.93289L5.38453 3.43815C5.47002 3.33423 5.62389 3.31778 5.72647 3.39485L7.83791 5.07482C7.97468 5.1874 8.16275 5.24801 8.35936 5.22204C8.77823 5.17008 9.06033 4.78905 9.01758 4.38205C8.99194 4.17422 8.88936 4.00103 8.75258 3.87113C8.70984 3.83649 6.70098 2.2258 6.70098 2.2258C6.57275 2.12188 6.54711 1.93137 6.64969 1.80234L7.44469 0.770976C8.17985 -0.172926 9.4621 -0.259523 10.4965 0.563144L11.6847 1.50705C12.1719 1.88807 12.4968 2.39033 12.6079 2.91857C12.7361 3.49963 12.5993 4.0703 12.2147 4.5639Z" fill="white"/>
</svg>
